<svg viewBox="0 0 390.06015 353.4451724137931" xmlns:xlink="http://www.w3.org/1999/xlink" xmlns="http://www.w3.org/2000/svg" data-name="Layer 1" id="Layer_1" style="max-height: 500px" width="390.06015" height="353.4451724137931">
  <defs>
    <style>
      .cls-1 {
        fill: #fbfaf9;
      }

      .cls-2 {
        fill: url(#linear-gradient-2);
      }

      .cls-3 {
        fill: none;
      }

      .cls-4 {
        fill: red;
      }

      .cls-5 {
        fill: #161615;
      }

      .cls-6 {
        fill: url(#linear-gradient);
      }
    </style>
    <linearGradient gradientUnits="userSpaceOnUse" y2="172.85" x2="375.97" y1="172.85" x1="28.91" id="linear-gradient">
      <stop stop-color="red" offset=".48" data-darkreader-inline-stopcolor="" style="--darkreader-inline-stopcolor: var(--darkreader-background-ff0000, #ff0606);"/>
      <stop stop-color="#710000" offset="1" data-darkreader-inline-stopcolor="" style="--darkreader-inline-stopcolor: var(--darkreader-background-710000, #7e0606);"/>
    </linearGradient>
    <linearGradient gradientUnits="userSpaceOnUse" y2="238.93" x2="376.49" y1="238.93" x1="356.06" id="linear-gradient-2">
      <stop stop-color="#760000" offset="0" data-darkreader-inline-stopcolor="" style="--darkreader-inline-stopcolor: var(--darkreader-background-760000, #830606);"/>
      <stop stop-color="#710000" offset="1" data-darkreader-inline-stopcolor="" style="--darkreader-inline-stopcolor: var(--darkreader-background-710000, #7e0606);"/>
    </linearGradient>
  </defs>
  <path d="M896.69,110.98c-2.68,18.45-5.92,36.85-8.89,55.26l-18.55,115.23-9.91,61.6c-1.86,11.53-3.11,23.72-6.35,34.95-2.32,8.03-6.11,14.75-12.02,20.7-7.58,7.63-17.69,13.61-28.26,15.87-9.89,2.11-20.24,1.54-30.3,1.54h-34.8l-128.44-.02c-7.58.04-15.6.54-23.08-.81-9.45-1.7-18.63-6.37-24.15-14.42-9.97-14.52-4.74-31.29-2.07-47.2,1.6-9.55,3.04-19.14,4.84-28.65h-275.81c-4.56,6.23-9.67,11.56-16.57,15.2-8.82,4.65-18.81,5.6-28.63,5.13-14.8-.7-29.89-5.41-44.07-9.49-7.06-2.03-13.95-4.64-21.34-5.09-9.65-.58-19.53-.16-29.21-.16l-53.82.08c-22.35.08-44.42.65-66.06-5.97-7.35-2.25-18.3-5.95-21.93-13.4-1.13-2.31-1.38-5.09-1.17-7.62.65-7.89,8.85-34.9,11.73-43.17-6.92-2.08-14.19-4.44-20.11-8.71-3.02-2.19-7.08-6.23-7.54-10.14-.42-3.56-.06-7.3.56-10.81,3.14-17.64,8.22-35.32,12.37-52.78,3.64-15.33,6.73-32.14,11.31-47.03.81-2.6,2.03-6.08,3.81-8.14,7.58-8.79,26.73-9.62,37.36-10.25,1.34-3.66,2.54-7.49,5.03-10.55,4.58-5.62,11.91-6.01,18.57-6.78,6.8-13.83,15.69-26.52,26.36-37.65,27.9-29.11,64.05-41.88,103.42-43.13,1.83-4.08,4.72-7.54,8.3-10.06,4.54-3.22,10.19-4.92,16.17-4.43,5.07.41,9.66,2.34,13.36,5.3,4.14,3.3,7.16,7.89,8.49,13.11,17.56,3.45,34.16,8.31,50.02,17.03,28.59,15.71,55.76,43.49,65.04,75.48l516.34-.02Z" class="cls-5"/>
  <path d="M372.36,208.06s-.6,4.94-1.66,11.98c-1.35-.31-2.76-.47-4.2-.47-10.48,0-18.98,8.5-18.98,18.99,0,9.25,6.62,16.95,15.38,18.63-1.53,4.7-3.2,8.29-4.96,9.84-8.21,7.21-11.87,7.35-17.34,7.49-10.51.28-14.52-6.27-23.03-11.71,3.8-16.83,7.5-33.69,11.08-50.58h.62c2,0,4.22-.09,5.79-1.53.99-.92,1.56-1.89,1.56-3.27.01-2.13-1.31-4.13-2.93-5.42-1.93-1.55-4.58-2.39-7.06-2.02-2.23.34-4.02,1.8-5.26,3.62-3.53,5.21-4.12,15-5.53,21.11-5.06,21.97-17.34,79.67-29.43,95.98-4.53,6.12-10.82,10.26-18.27,11.89-6.49,1.41-13.11,1.26-19.65.35-14.57-2.03-28.9-6.71-43.14-10.36-28.45-7.29-57.72-13.32-86.84-17.17-6.86-.9-14.72-2.35-21.62-2.28-19.37-1.7-39.69-3.37-58.97.09-2.41.5-5.91,1.8-8.1.27-.65-.46-.83-.81-.9-1.61-.44-4.45,12.85-52.19,15.21-60.26,45.12-2.67,92.27,2.31,136.21,12.7,12.85,2.94,25.58,6.39,38.16,10.33,9.41,2.96,19.85,7.76,29.63,8.82,2.54.28,4.58-.46,6.82-1.68,1.94-1.07,3.74-2.42,5.17-4.13,1.82-2.17,2.81-5.92,3.62-8.61,4.85-16.02,8.4-32.65,12.5-48.89,3.29-13.07,7.44-26.43,9.83-39.67.36-1.96.5-3.97.27-5.96-.54-4.83-2.86-7.71-6.61-10.6-4.29-3.31-9.46-5.81-14.32-8.2-39.58-19.49-98.96-27.83-143.09-31.24-15.3-1.18-30.51-1.21-45.81-1.83,1.48-1.47,2.92-3.01,4.46-4.41,65.33-8.04,149.31,2.06,209.55,28.82,5.52,2.45,11.22,5.04,16.39,8.16,4.86,2.93,9.71,7.24,14.99,9.27,2.16.82,4.13,1.41,6.2.08.62-1.15.96-1.45.5-2.77-.89-2.56-5.41-5.76-7.48-7.39-18.22-14.31-39.76-23.12-61.68-30.05-41.14-13.02-85.2-19.39-128.29-20.3-9.29-.2-18.56.33-27.84.42,19.78-31.78,44.55-54.69,81.93-63.37,12.64-2.94,26.25-4.44,40.09-4.45.71-8.75,8.38-15.27,17.13-14.56,8.76.71,15.27,8.37,14.57,17.12,21.48,3.49,42.21,10.63,59.49,21.51,27.99,17.62,49.43,45.2,56.63,77.76,5.87,26.53,1.02,52.93-.79,79.56Z" class="cls-6"/>
  <path d="M337.64,171.01c1.26-.03,2.52-.04,3.69.48,1.57.7,2.7,2.14,3.2,3.76.8,2.54.47,6.03-.87,8.34-.91,1.57-2.14,2.49-3.88,2.96-1.86.15-3.56.14-5.13-.99-1.47-1.07-2.26-2.7-2.53-4.47-.39-2.58.01-5.77,1.6-7.89,1.07-1.43,2.19-1.9,3.92-2.18Z" class="cls-5"/>
  <path d="M625.19,290.18c7.05-1.31,16.94-.37,24.2-.36,16.98-.06,33.97,0,50.95.16l-5.16,26.3c-9.59.14-61.81-1.44-65.49,1.53-2.84,6.37-10.91,49.07-10.27,56.03.74.89,1.51,1.13,2.61,1.36,4.75,1.01,29.59,1.43,32.77-1.06,3.13-2.45,3.62-12.4,4.42-16.54-6.9-.11-13.81-.07-20.71-.1,1.1-7.88,2.77-15.75,4.18-23.58l13.85-.03c12.32-.08,24.64-.04,36.96.1-2.07,13.75-5.84,43.49-13.13,54.43-4.38,6.57-10.86,10.14-18.46,11.64-9.11,1.81-48.06,1.88-57.67.28-4.27-.71-8.77-2.04-12.34-4.56-3.75-2.65-5.51-7.26-6.18-11.67-.38-2.52-.39-5.04-.13-7.57,1.11-10.92,3.84-22.08,5.81-32.89,1.84-10.07,3.07-20.71,5.8-30.56,1.09-3.92,2.66-8.5,5.13-11.76,5.86-7.75,13.73-9.96,22.86-11.16Z" class="cls-4"/>
  <path d="M741.64,290.15c7.83-1.24,17.12-.35,25.08-.35,16.67-.05,33.34,0,50,.17-1.64,8.8-3.32,17.6-5.04,26.39l-36.93-.06c-8.78,0-19.04-1.08-27.55,1.11-2.7,3.42-10.76,48.29-10.89,54.39-.03,1.33.2,1.74,1.07,2.71,6.65,2.41,27.61,1.43,35.05.67,2.13-5.48,2.79-11.84,3.81-17.61l-20.64-.05,4.33-23.65h13.37c12.44-.11,24.88-.05,37.32.17-1.54,12.6-6.38,43.83-12.61,53.93-4.17,6.77-10.04,10.04-17.61,11.77-9.68,2.21-48.57,2.21-58.94.6-4.24-.66-8.85-1.9-12.45-4.3-3.56-2.38-5.34-6.97-6-11.05-.42-2.63-.32-5.23-.03-7.86,1.17-10.96,3.74-22.05,5.69-32.91,1.87-10.42,3.2-21.47,6.07-31.63,1.18-4.16,2.96-8.64,5.56-12.12,5.19-6.96,13.24-9.07,21.34-10.3Z" class="cls-4"/>
  <path d="M76.85,124.72c47.39-1.91,102.9,4.27,148.73,16.67,8.45,2.29,18.53,4.68,26.18,8.96,1.02,1.63,2.15,3.4,2.48,5.32.35,2.04-.11,4.09-.52,6.09-3.13,15.4-7.69,30.77-11.45,46.04-3.26,13.24-5.81,27.13-9.98,40.11-.64,2-1.56,3.67-2.75,5.4-7.84-.15-15.78-3.13-23.3-5.19-9.03-2.48-18.03-4.96-27.2-6.9-45.69-9.67-94.04-16.82-140.81-11.77-9.1.98-17.73,3.59-26.72,4.99l3.37-14c3.18-1.13,6.33-2.03,9.61-2.82,7.08-1.16,14.34-1.56,21.5-2.04,38.33-2.57,76.94,1.07,114.69,7.77,17.61,3.12,34.77,8.04,52.27,11.42,1.18.23,2.41.35,3.6.05,1.46-.38,2.02-1.33,2.63-2.6,3.68-7.69,7.28-27.07,9.5-36.17,2.26-9.29,5.33-18.93,6.78-28.34.32-2.1.6-4.49-.24-6.51-.55-1.32-1.91-2-3.14-2.54-6.53-2.89-14.81-4.34-21.8-6.06-41.59-10.26-118.95-19.19-160.71-11.94-6.07,1.05-10.94,2.88-16.71,5.02l3.56-14.47c12.9-6.35,26.44-6.02,40.44-6.49Z" class="cls-1"/>
  <path d="M712.25,147.64c9.43-.83,23.79-1.62,31.95,3.71,4.78,3.12,7.56,8.34,8.51,13.88,1.78,10.4.7,27.12.69,38.13,0,11.79.96,24.43-.47,36.09-.5,4.1-1.31,8.34-3.75,11.76-3.58,5.02-8.78,7.21-14.65,8.21-9.33,1.16-24.69,2.22-32.87-2.88-4.63-2.89-7.68-7.79-8.82-13.07-2.14-9.95-.98-29.12-.97-39.84,0-11.24-.82-23.25.38-34.41.44-4.13,1.3-8.99,3.68-12.45,3.9-5.69,9.77-8.04,16.31-9.12Z" class="cls-1"/>
  <path d="M717.16,165.16c3.5-.14,7.32-.58,10.75.25,1.49.36,3.4,1.11,4.17,2.51,1.09,1.96,1.27,5.36,1.42,7.61.46,7.2.88,59.41-.66,63.12-.84,2.03-2.29,2.6-4.19,3.34-3.58.16-7.56.64-11.11-.02-1.4-.26-3.47-.83-4.2-2.18-1.06-1.96-1.23-4.84-1.37-7.06-.49-7.64-.84-59.42.91-63.72.85-2.09,2.31-2.92,4.27-3.85Z" class="cls-5"/>
  <path d="M544.93,148.48c11.99-.09,35.68-1.69,46.53,1.93,4.65,1.55,7.58,3.58,9.74,8.1,4.18,8.76,3.98,37.95.37,47.1-1.94,4.92-6.28,6.85-10.79,8.88,4.66,15,10.41,29.76,15.4,44.66-6.89-.12-13.8-.04-20.69-.04l-2.08-6.51-12.33-35.58-6.58.07.09,42.24c-6.54-.16-13.11-.06-19.66-.07v-110.77Z" class="cls-1"/>
  <path d="M564.46,166.06c5.38-.05,12.15-1.1,17.11,1.2,1.21,1.34,1.53,2.91,1.78,4.66.8,5.65,1.37,22.28-1.83,26.74-5.28,1.67-11.57,1.13-17.07,1.11.15-11.23.02-22.47.01-33.7Z" class="cls-5"/>
  <path d="M485.39,148.54l28.28-.03c1.88,15.26,5.4,30.55,8.31,45.66l12.36,65.12c-6.86.27-13.78.14-20.65.18-.63-5.37-1.8-10.76-2.74-16.08-.39-1.57-.46-2.91-1.62-4.06-6.89-.78-14.34-.17-21.29-.08-1.51,6.67-2.62,13.44-3.86,20.17h-19.07c3.69-15.63,5.99-31.88,8.89-47.69,3.85-21.03,8.19-42.05,11.4-63.18Z" class="cls-1"/>
  <path d="M498.99,177.29c1.74,3.97,1.83,9.85,2.58,14.18,1.75,10.18,3.59,20.35,5.51,30.5l-7.03.04h-9.35c2.98-14.82,4.65-30.08,8.29-44.72Z" class="cls-5"/>
  <path d="M659.94,148.02h22c-7.99,17.93-15.08,36.26-22.82,54.29,4.86,11.38,9.83,22.71,14.89,33.99,3.36,7.57,6.69,15.16,9.97,22.76l-21.88.04c-5.82-12.98-11.69-26.06-16.85-39.31-1.97,3.96-4.15,7.94-5.32,12.22-2.09,7.67-.77,19.04-.63,27.13-6.82-.11-13.66-.04-20.48-.05.73-36.96.2-74.11.02-111.08h20.51c-.57,16.97.97,34.26-.56,51.16,6.82-17.15,14.23-34.06,21.15-51.16Z" class="cls-1"/>
  <path d="M761.02,147.77c6.91.25,13.82.12,20.73.05,1,11.28,3.93,22.99,5.99,34.17,2.93,15.89,5.42,31.92,8.83,47.71.66-9.42,3.08-19.01,4.85-28.29,3.5-17.8,6.85-35.64,10.02-53.5l20.31-.02c-2.18,8.74-3.72,17.68-5.43,26.53l-10.43,52.46c-2.15,10.74-4.59,21.49-6.16,32.33-9.06-.28-18.13-.14-27.19-.06-7.9-36.93-14.02-74.33-21.51-111.37Z" class="cls-1"/>
  <path d="M409.23,148.49c19.32.26,38.67.04,57.99.04-.27,5.86-.12,11.72-.06,17.58l-19.21-.04v73.68s.02,19.64.02,19.64l-20.04-.05-.03-93.25-18.72.12c.12-5.9.04-11.83.04-17.73Z" class="cls-1"/>
  <path d="M262.19,157.4c3.56,1.61,11.02,5.03,12.71,8.6.1,2.44-.15,4.77-.6,7.17-2.68,14.34-7.21,28.8-10.85,42.95-3.32,12.93-5.96,26.79-10.44,39.32-.83,2.32-1.77,3.96-3.44,5.79-4.44-.2-8.86-1.99-13.06-3.35,2.51-7.6,4.31-15.5,6.31-23.25,3.23-12.31,6.37-24.65,9.4-37.02,3.26-13.35,7.31-26.73,9.97-40.21Z" class="cls-1"/>
  <path d="M46.56,141.25c-1.05,4.22-12.35,50.57-18.52,75.85-4.39,1.11-8.78,2.23-13.17,3.34,5.71-24.92,21.53-89.23,21.53-89.23,0,0,8.62,6.56,10.16,10.03Z" class="cls-1"/>
  <path d="M40.31,142.95c.07-4.13,3.25-7.69,6.99-9.44s7.97-2.04,12.09-2.28c23.16-1.32,46.45-1.73,69.51.87,17.27,1.94,34.51,4.09,51.72,6.44,8.67,1.18,17.39,2.43,25.73,5.12,7.75,2.5,15.51,5,23.26,7.5,2.17.7,4.37,1.41,6.25,2.7,3.47,2.36,5.48,6.45,6.14,10.59s.14,8.38-.57,12.52c-1.04,6.02-2.47,11.96-3.89,17.9-2.86,11.89-5.72,23.78-8.58,35.67-.62,2.59-1.26,5.22-2.63,7.5-1.83,3.04-5.82,3.9-9.36,4.13-14.55.96-28.84-3.49-42.96-7.14-31.69-8.21-64.42-12.6-97.16-12.27-16.13.16-32.29,1.47-48.39.37-1.75-.12-3.6-.31-4.99-1.38-2.06-1.59-2.39-4.55-2.39-7.15-.02-23.83,12.66-45.97,14.85-69.69,1.31-1.27,2.59-1.51,4.37-1.95Z" class="cls-3"/>
  <circle r="10.21" cy="238.93" cx="366.28" class="cls-2"/>
</svg>